<svg width="291" height="291" viewBox="0 0 291 291" fill="none" xmlns="http://www.w3.org/2000/svg">
<path d="M145.5 126.1V242.5M145.5 126.1C145.5 98.9374 145.5 85.3562 140.214 74.9815C135.564 65.8556 128.144 58.4361 119.019 53.7861C108.644 48.5 95.0625 48.5 67.9 48.5H55.775C48.9844 48.5 45.589 48.5 42.9954 49.8215C40.7139 50.9841 38.859 52.8389 37.6965 55.1204C36.375 57.714 36.375 61.1094 36.375 67.9V198.85C36.375 205.641 36.375 209.036 37.6965 211.63C38.859 213.912 40.7139 215.766 42.9954 216.928C45.589 218.25 48.9844 218.25 55.775 218.25H91.5035C98.0533 218.25 101.328 218.25 104.495 218.815C107.306 219.316 110.048 220.145 112.664 221.289C115.612 222.575 118.337 224.391 123.787 228.025L145.5 242.5M145.5 126.1C145.5 98.9374 145.5 85.3562 150.786 74.9815C155.436 65.8556 162.856 58.4361 171.981 53.7861C182.356 48.5 195.938 48.5 223.1 48.5H235.225C242.016 48.5 245.411 48.5 248.005 49.8215C250.287 50.9841 252.141 52.8389 253.303 55.1204C254.625 57.714 254.625 61.1094 254.625 67.9V198.85C254.625 205.641 254.625 209.036 253.303 211.63C252.141 213.912 250.287 215.766 248.005 216.928C245.411 218.25 242.016 218.25 235.225 218.25H199.496C192.946 218.25 189.671 218.25 186.506 218.815C183.694 219.316 180.952 220.145 178.336 221.289C175.388 222.575 172.662 224.391 167.213 228.025L145.5 242.5" stroke="#3852FF" stroke-width="20" stroke-linecap="round" stroke-linejoin="round"/>
</svg>
