<svg width="960" height="291" viewBox="0 0 960 291" fill="none" xmlns="http://www.w3.org/2000/svg">
<path d="M145.5 126.1V242.5M145.5 126.1C145.5 98.9374 145.5 85.3562 140.214 74.9815C135.564 65.8556 128.144 58.4361 119.019 53.7861C108.644 48.5 95.0625 48.5 67.9 48.5H55.775C48.9844 48.5 45.589 48.5 42.9954 49.8215C40.7139 50.9841 38.859 52.8389 37.6965 55.1204C36.375 57.714 36.375 61.1094 36.375 67.9V198.85C36.375 205.641 36.375 209.036 37.6965 211.63C38.859 213.912 40.7139 215.766 42.9954 216.928C45.589 218.25 48.9844 218.25 55.775 218.25H91.5035C98.0533 218.25 101.328 218.25 104.495 218.815C107.306 219.316 110.048 220.145 112.664 221.289C115.612 222.575 118.337 224.391 123.787 228.025L145.5 242.5M145.5 126.1C145.5 98.9374 145.5 85.3562 150.786 74.9815C155.436 65.8556 162.856 58.4361 171.981 53.7861C182.356 48.5 195.938 48.5 223.1 48.5H235.225C242.016 48.5 245.411 48.5 248.005 49.8215C250.287 50.9841 252.141 52.8389 253.303 55.1204C254.625 57.714 254.625 61.1094 254.625 67.9V198.85C254.625 205.641 254.625 209.036 253.303 211.63C252.141 213.912 250.287 215.766 248.005 216.928C245.411 218.25 242.016 218.25 235.225 218.25H199.496C192.946 218.25 189.671 218.25 186.506 218.815C183.694 219.316 180.952 220.145 178.336 221.289C175.388 222.575 172.662 224.391 167.213 228.025L145.5 242.5" stroke="#3852FF" stroke-width="20" stroke-linecap="round" stroke-linejoin="round"/>
<path d="M302.25 181.875L311.375 167.188C314.25 169.521 317.021 171.438 319.688 172.938C322.396 174.396 325.062 175.479 327.688 176.188C330.312 176.854 333 177.188 335.75 177.188C339 177.188 341.812 176.729 344.188 175.812C346.562 174.896 348.396 173.583 349.688 171.875C351.021 170.167 351.688 168.188 351.688 165.938C351.688 163.312 350.854 161.104 349.188 159.312C347.521 157.521 345.333 155.958 342.625 154.625C339.958 153.25 337.062 151.938 333.938 150.688C330.896 149.438 327.833 148.083 324.75 146.625C321.708 145.125 318.896 143.354 316.312 141.312C313.771 139.271 311.708 136.792 310.125 133.875C308.583 130.917 307.812 127.333 307.812 123.125C307.812 117.625 309.188 112.875 311.938 108.875C314.729 104.875 318.542 101.792 323.375 99.625C328.208 97.4583 333.729 96.375 339.938 96.375C344.312 96.375 348.854 96.9583 353.562 98.125C358.312 99.2917 363.042 101.062 367.75 103.438L360.188 119C357.229 117.208 354.042 115.792 350.625 114.75C347.208 113.708 344 113.188 341 113.188C338.292 113.188 335.917 113.604 333.875 114.438C331.875 115.271 330.312 116.438 329.188 117.938C328.062 119.396 327.5 121.125 327.5 123.125C327.5 125.5 328.312 127.562 329.938 129.312C331.562 131.021 333.667 132.542 336.25 133.875C338.875 135.208 341.688 136.542 344.688 137.875C347.771 139.208 350.875 140.667 354 142.25C357.167 143.833 360.042 145.708 362.625 147.875C365.25 150 367.354 152.562 368.938 155.562C370.562 158.521 371.375 162.083 371.375 166.25C371.375 171.75 369.917 176.583 367 180.75C364.083 184.875 360.021 188.104 354.812 190.438C349.604 192.729 343.542 193.875 336.625 193.875C330.292 193.875 324.229 192.854 318.438 190.812C312.646 188.771 307.25 185.792 302.25 181.875ZM423.438 190.375C418.646 192.292 414 193.25 409.5 193.25C404.833 193.25 400.708 192.271 397.125 190.312C393.583 188.312 390.812 185.542 388.812 182C386.812 178.417 385.812 174.292 385.812 169.625V145.5H374.875V129.5H386.75V113.875H403.75V129.5H421.062V145.5H403.75V166.375C403.75 169.792 404.688 172.458 406.562 174.375C408.438 176.25 410.771 177.188 413.562 177.188C416.104 177.188 418.583 176.396 421 174.812L423.438 190.375ZM463.562 193.25C457.146 193.25 451.396 191.854 446.312 189.062C441.229 186.229 437.229 182.375 434.312 177.5C431.438 172.583 430 167 430 160.75C430 154.542 431.438 149 434.312 144.125C437.229 139.208 441.229 135.333 446.312 132.5C451.396 129.667 457.146 128.25 463.562 128.25C469.979 128.25 475.688 129.667 480.688 132.5C485.729 135.333 489.688 139.208 492.562 144.125C495.479 149 496.938 154.542 496.938 160.75C496.938 167 495.479 172.583 492.562 177.5C489.688 182.375 485.729 186.229 480.688 189.062C475.688 191.854 469.979 193.25 463.562 193.25ZM463.5 177.188C466.375 177.188 468.938 176.479 471.188 175.062C473.479 173.604 475.271 171.646 476.562 169.188C477.896 166.688 478.562 163.833 478.562 160.625C478.562 157.542 477.896 154.771 476.562 152.312C475.271 149.854 473.479 147.917 471.188 146.5C468.938 145.042 466.375 144.312 463.5 144.312C460.583 144.312 457.979 145.042 455.688 146.5C453.438 147.917 451.646 149.854 450.312 152.312C449.021 154.771 448.375 157.542 448.375 160.625C448.375 163.833 449.021 166.688 450.312 169.188C451.646 171.646 453.438 173.604 455.688 175.062C457.979 176.479 460.583 177.188 463.5 177.188ZM526.312 192H508.375V129.5H524L524.625 140.312C526.708 136.521 529.542 133.562 533.125 131.438C536.708 129.312 540.812 128.25 545.438 128.25C546.771 128.25 548.104 128.354 549.438 128.562C550.812 128.729 552.208 129 553.625 129.375L551.375 145.5C548.625 144.708 546.021 144.312 543.562 144.312C540.104 144.312 537.062 145.104 534.438 146.688C531.854 148.229 529.854 150.396 528.438 153.188C527.021 155.938 526.312 159.167 526.312 162.875V192ZM594.438 223.25H575.312L588.312 191.938L556.75 129.5H577L596.812 171.5L614.188 129.5H633.25L594.438 223.25ZM723.875 180.25C719.5 184.5 714.312 187.833 708.312 190.25C702.312 192.667 695.792 193.875 688.75 193.875C681.625 193.875 675.062 192.667 669.062 190.25C663.062 187.792 657.833 184.375 653.375 180C648.958 175.583 645.521 170.417 643.062 164.5C640.604 158.583 639.375 152.125 639.375 145.125C639.375 138.125 640.604 131.667 643.062 125.75C645.521 119.792 648.958 114.625 653.375 110.25C657.833 105.875 663.062 102.479 669.062 100.062C675.062 97.6042 681.625 96.375 688.75 96.375C695.75 96.375 702.229 97.5833 708.188 100C714.188 102.417 719.375 105.771 723.75 110.062L710.312 123.562C707.688 120.354 704.479 117.833 700.688 116C696.938 114.125 692.854 113.188 688.438 113.188C684.229 113.188 680.333 114 676.75 115.625C673.208 117.208 670.104 119.458 667.438 122.375C664.771 125.25 662.708 128.625 661.25 132.5C659.792 136.375 659.062 140.562 659.062 145.062C659.062 149.646 659.792 153.875 661.25 157.75C662.708 161.625 664.771 165.021 667.438 167.938C670.104 170.812 673.208 173.062 676.75 174.688C680.333 176.271 684.229 177.062 688.438 177.062C692.854 177.062 696.938 176.146 700.688 174.312C704.438 172.438 707.625 169.896 710.25 166.688L723.875 180.25ZM754.312 192H736.375V129.5H752L752.625 140.312C754.708 136.521 757.542 133.562 761.125 131.438C764.708 129.312 768.812 128.25 773.438 128.25C774.771 128.25 776.104 128.354 777.438 128.562C778.812 128.729 780.208 129 781.625 129.375L779.375 145.5C776.625 144.708 774.021 144.312 771.562 144.312C768.104 144.312 765.062 145.104 762.438 146.688C759.854 148.229 757.854 150.396 756.438 153.188C755.021 155.938 754.312 159.167 754.312 162.875V192ZM843.75 192H828.125L827.188 184.562C824.896 187.312 822.062 189.458 818.688 191C815.312 192.5 811.604 193.25 807.562 193.25C803.188 193.25 799.292 192.417 795.875 190.75C792.458 189.042 789.771 186.708 787.812 183.75C785.854 180.75 784.875 177.354 784.875 173.562C784.875 169.562 785.938 166.042 788.062 163C790.188 159.958 793.104 157.583 796.812 155.875C800.562 154.125 804.812 153.25 809.562 153.25C812.354 153.25 815.146 153.562 817.938 154.188C820.771 154.812 823.396 155.688 825.812 156.812V155.188C825.812 152.688 825.104 150.542 823.688 148.75C822.312 146.917 820.396 145.5 817.938 144.5C815.521 143.5 812.812 143 809.812 143C806.938 143 804.083 143.458 801.25 144.375C798.458 145.292 795.875 146.667 793.5 148.5L788.625 134.812C792.833 132.646 797.083 131.021 801.375 129.938C805.708 128.812 809.896 128.25 813.938 128.25C820.021 128.25 825.292 129.458 829.75 131.875C834.208 134.25 837.646 137.625 840.062 142C842.521 146.333 843.75 151.479 843.75 157.438V192ZM811.5 179.438C813.875 179.438 816.146 178.917 818.312 177.875C820.479 176.833 822.229 175.417 823.562 173.625C824.938 171.833 825.667 169.854 825.75 167.688V167.25C823.917 166 821.875 165.042 819.625 164.375C817.417 163.667 815.167 163.312 812.875 163.312C809.458 163.312 806.667 164.062 804.5 165.562C802.333 167.062 801.25 169 801.25 171.375C801.25 172.917 801.688 174.312 802.562 175.562C803.479 176.771 804.708 177.729 806.25 178.438C807.792 179.104 809.542 179.438 811.5 179.438ZM880.75 192H862.812V145.5H851.875V129.5H862.812V119.75C862.812 115.25 863.875 111.25 866 107.75C868.125 104.208 871.042 101.438 874.75 99.4375C878.5 97.3958 882.75 96.375 887.5 96.375C890.5 96.375 893.562 96.8125 896.688 97.6875C899.812 98.5208 902.896 99.8542 905.938 101.688L899.125 115.625C897.792 114.542 896.375 113.75 894.875 113.25C893.417 112.708 891.958 112.438 890.5 112.438C887.75 112.438 885.438 113.396 883.562 115.312C881.688 117.229 880.75 119.875 880.75 123.25V129.5H899.438V145.5H880.75V192ZM957.188 190.375C952.396 192.292 947.75 193.25 943.25 193.25C938.583 193.25 934.458 192.271 930.875 190.312C927.333 188.312 924.562 185.542 922.562 182C920.562 178.417 919.562 174.292 919.562 169.625V145.5H908.625V129.5H920.5V113.875H937.5V129.5H954.812V145.5H937.5V166.375C937.5 169.792 938.438 172.458 940.312 174.375C942.188 176.25 944.521 177.188 947.312 177.188C949.854 177.188 952.333 176.396 954.75 174.812L957.188 190.375Z" fill="#3852FF"/>
</svg>
